<svg width="270" height="301" viewBox="0 0 270 301" fill="none" xmlns="http://www.w3.org/2000/svg">
<path fill-rule="evenodd" clip-rule="evenodd" d="M194.558 276.96C178.545 292.402 157.312 301 135.001 301C112.851 301 91.7567 292.528 75.7757 277.281L26.7879 259.563C23.8904 258.515 21.8271 256.419 20.8242 253.503L0.537733 194.548C0.164436 193.464 0.000976562 192.484 0.000976562 191.337C0.000976562 188.638 0.000976562 185.938 0.000976562 183.238C0.000976562 179.3 0.000976562 175.362 0.000976562 171.424V29.7719C0.000976562 13.3791 13.3644 0.000976562 29.7393 0.000976562H240.263C256.638 0.000976562 270.001 13.3783 270.001 29.7719V171.424C270.001 175.186 270.001 178.949 270.001 182.712C270.001 185.587 270.001 188.462 270.001 191.337C270.001 192.484 269.838 193.464 269.464 194.548L249.178 253.503C248.17 256.431 246.093 258.534 243.18 259.576L194.558 276.96Z" fill="white"/>
<path fill-rule="evenodd" clip-rule="evenodd" d="M29.7386 9.85818H240.262C251.202 9.85818 260.153 18.8195 260.153 29.7712V171.424C260.153 195.81 260.153 171.424 260.153 191.337L239.867 250.292L189.188 268.412C175.397 282.441 156.215 291.142 135 291.142C113.949 291.142 94.8968 282.576 81.1304 268.736L30.1332 250.292L9.84668 191.336C9.84668 171.423 9.84668 195.81 9.84668 171.423V29.7704C9.84668 18.8188 18.7974 9.85742 29.7378 9.85742L29.7386 9.85818Z" fill="black"/>
<path fill-rule="evenodd" clip-rule="evenodd" d="M20.0371 189.63L38.1804 242.357L84.5924 259.143C86.0742 259.679 87.2389 260.422 88.3504 261.539C100.752 274.006 117.422 280.941 135 280.941C152.716 280.941 169.501 273.894 181.925 261.257C183.054 260.109 184.245 259.348 185.76 258.806L231.827 242.335L249.963 189.63C249.963 187.499 249.963 185.369 249.963 183.239C249.963 179.301 249.963 175.363 249.963 171.425V29.7724C249.963 24.4514 245.577 20.0605 240.262 20.0605H29.7383C24.4232 20.0605 20.0371 24.4506 20.0371 29.7724V171.425C20.0371 175.187 20.0371 178.95 20.0371 182.712C20.0371 185.018 20.0371 187.324 20.0371 189.63Z" fill="#DB5740"/>
<path fill-rule="evenodd" clip-rule="evenodd" d="M26.388 188.565L43.1954 237.411L86.7503 253.164C89.1041 254.016 91.0846 255.278 92.85 257.054C104.06 268.323 119.113 274.584 135 274.584C151.011 274.584 166.169 268.222 177.398 256.799C179.193 254.973 181.216 253.68 183.624 252.819L226.816 237.376L243.612 188.566C243.612 186.79 243.612 185.014 243.612 183.239C243.612 179.301 243.612 175.363 243.612 171.425V29.7722C243.612 27.96 242.071 26.418 240.261 26.418H29.7378C27.9275 26.418 26.3872 27.96 26.3872 29.7722V171.425C26.3872 175.187 26.3872 178.95 26.3872 182.712C26.3872 184.663 26.3872 186.614 26.3872 188.566L26.388 188.565Z" fill="#522583"/>
<path fill-rule="evenodd" clip-rule="evenodd" d="M35.3076 187.07L50.2395 230.464L89.7816 244.765C93.3655 246.062 96.4827 248.049 99.171 250.752C108.706 260.337 121.487 265.654 135.001 265.654C148.62 265.654 161.49 260.252 171.042 250.535C173.774 247.755 176.957 245.721 180.625 244.409L219.781 230.409L234.694 187.07C234.694 185.793 234.694 184.516 234.694 183.238C234.694 179.3 234.694 175.362 234.694 171.424V120.93C234.694 117.345 232.82 114.997 228.767 114.997H41.2355C37.1817 114.997 35.3091 117.345 35.3091 120.93V171.424C35.3091 175.186 35.3091 178.949 35.3091 182.711C35.3091 184.164 35.3091 185.617 35.3091 187.069L35.3076 187.07Z" fill="black"/>
<path fill-rule="evenodd" clip-rule="evenodd" d="M39.3672 186.39L53.4445 227.302L91.1604 240.942C95.3001 242.44 98.9411 244.762 102.047 247.883C110.82 256.702 122.567 261.589 135 261.589C147.531 261.589 159.358 256.624 168.147 247.683C171.303 244.472 175.021 242.096 179.258 240.581L216.577 227.239L230.632 186.39C230.632 185.339 230.632 184.288 230.632 183.238C230.632 179.3 230.632 175.362 230.632 171.424V120.93C230.632 119.382 230.32 119.062 228.765 119.062H41.2337C39.6789 119.062 39.3672 119.382 39.3672 120.93V171.424C39.3672 175.186 39.3672 178.949 39.3672 182.711C39.3672 183.937 39.3672 185.163 39.3672 186.39Z" fill="white"/>
<path fill-rule="evenodd" clip-rule="evenodd" d="M42.5254 185.861L55.939 224.842L92.234 237.97C96.8116 239.626 100.851 242.2 104.285 245.653C112.466 253.877 123.407 258.429 135 258.429C146.684 258.429 157.701 253.803 165.896 245.466C169.386 241.917 173.511 239.279 178.196 237.605L214.085 224.773L227.474 185.861C227.474 184.987 227.474 184.113 227.474 183.239C227.474 179.301 227.474 175.363 227.474 171.425V122.225H42.5239V171.425C42.5239 175.187 42.5239 178.95 42.5239 182.713C42.5239 183.762 42.5239 184.812 42.5239 185.861L42.5254 185.861Z" fill="#522583"/>
<path fill-rule="evenodd" clip-rule="evenodd" d="M45.2461 185.405L58.088 222.724L93.1588 235.408C98.1067 237.198 102.5 239.999 106.214 243.731C113.883 251.441 124.132 255.705 135.001 255.705C145.956 255.705 156.276 251.372 163.959 243.556C167.732 239.719 172.218 236.851 177.283 235.04L211.94 222.648L224.755 185.405C224.755 184.682 224.755 183.961 224.755 183.239C224.755 179.301 224.755 175.363 224.755 171.425V124.947H45.2469V171.425C45.2469 175.187 45.2469 178.95 45.2469 182.712C45.2469 183.61 45.2469 184.507 45.2469 185.405H45.2461Z" fill="black"/>
<mask id="mask0_5243_5075" style="mask-type:luminance" maskUnits="userSpaceOnUse" x="45" y="124" width="180" height="132">
<path d="M45.2461 185.405L58.088 222.724L93.1588 235.408C98.1067 237.198 102.5 239.999 106.214 243.731C113.883 251.441 124.132 255.705 135.001 255.705C145.956 255.705 156.276 251.372 163.959 243.556C167.732 239.719 172.218 236.851 177.283 235.04L211.94 222.648L224.755 185.405C224.755 184.682 224.755 183.961 224.755 183.239C224.755 179.301 224.755 175.363 224.755 171.425V124.947H45.2469V171.425C45.2469 175.187 45.2469 178.95 45.2469 182.712C45.2469 183.61 45.2469 184.507 45.2469 185.405H45.2461Z" fill="white"/>
</mask>
<g mask="url(#mask0_5243_5075)">
<path fill-rule="evenodd" clip-rule="evenodd" d="M78.314 34.1217L287.813 243.85L404.756 176.259L234.326 5.6416L78.314 34.1217Z" fill="#DB5740"/>
<path fill-rule="evenodd" clip-rule="evenodd" d="M-33.6084 97.5965C36.2247 167.506 106.057 237.415 175.89 307.325C214.871 284.795 253.852 262.264 292.833 239.734C236.023 182.862 179.213 125.989 122.404 69.1172C70.4 78.6098 18.3962 88.1032 -33.6076 97.5965H-33.6084Z" fill="#E48170"/>
<path fill-rule="evenodd" clip-rule="evenodd" d="M-86.9819 129.543C-17.1488 199.452 52.6835 269.362 122.517 339.271C161.498 316.741 200.479 294.21 239.46 271.68C182.649 214.807 125.84 157.935 69.0303 101.063C17.0265 110.557 -34.9774 120.049 -86.9812 129.543H-86.9819Z" fill="#EDABA0"/>
<path fill-rule="evenodd" clip-rule="evenodd" d="M-140.356 161.489C-70.5229 231.399 -0.690506 301.308 69.1426 371.218C108.124 348.687 147.105 326.157 186.086 303.626C129.276 246.754 72.4658 189.882 15.6562 133.01C-36.3476 142.503 -88.3514 151.996 -140.355 161.489H-140.356Z" fill="#F6D5CF"/>
<path fill-rule="evenodd" clip-rule="evenodd" d="M-180.482 186.059L29.0166 395.788L145.959 328.197L-24.4705 157.58L-180.482 186.059Z" fill="white"/>
<path d="M50.9514 132.284C52.1624 132.284 53.1441 131.301 53.1441 130.089C53.1441 128.876 52.1624 127.894 50.9514 127.894C49.7405 127.894 48.7588 128.876 48.7588 130.089C48.7588 131.301 49.7405 132.284 50.9514 132.284Z" fill="white"/>
<path fill-rule="evenodd" clip-rule="evenodd" d="M62.1701 152.796L63.1379 155.817L65.3328 156.99L63.0543 158.273L62.1701 161.183L61.203 158.162L59.0073 156.99L61.2859 155.706L62.1701 152.796Z" fill="white"/>
<path fill-rule="evenodd" clip-rule="evenodd" d="M81.5509 202.328L82.245 204.495L83.8196 205.336L82.185 206.256L81.5509 208.344L80.8575 206.177L79.2822 205.336L80.9168 204.416L81.5509 202.328Z" fill="white"/>
<path fill-rule="evenodd" clip-rule="evenodd" d="M56.0582 184.354L56.7524 186.52L58.3269 187.361L56.6923 188.282L56.0582 190.369L55.3641 188.202L53.7896 187.361L55.4234 186.441L56.0582 184.354Z" fill="white"/>
<path fill-rule="evenodd" clip-rule="evenodd" d="M97.3986 215.422L98.0927 217.589L99.6672 218.429L98.0326 219.35L97.3986 221.437L96.7044 219.27L95.1299 218.429L96.7645 217.509L97.3986 215.422Z" fill="white"/>
<path fill-rule="evenodd" clip-rule="evenodd" d="M139.876 201.156L140.57 203.323L142.144 204.164L140.511 205.084L139.876 207.172L139.182 205.005L137.608 204.164L139.242 203.244L139.876 201.156Z" fill="white"/>
<path fill-rule="evenodd" clip-rule="evenodd" d="M154.188 178.564L155.086 181.369L157.124 182.457L155.009 183.648L154.188 186.349L153.29 183.545L151.252 182.457L153.367 181.266L154.188 178.564Z" fill="white"/>
<path fill-rule="evenodd" clip-rule="evenodd" d="M170.69 156.432L171.982 160.466L174.913 162.03L171.871 163.744L170.69 167.629L169.398 163.595L166.467 162.03L169.509 160.317L170.69 156.432Z" fill="white"/>
<path fill-rule="evenodd" clip-rule="evenodd" d="M194.81 129.681L195.688 132.422L197.679 133.485L195.612 134.65L194.81 137.29L193.932 134.549L191.94 133.485L194.008 132.321L194.81 129.681Z" fill="white"/>
<path fill-rule="evenodd" clip-rule="evenodd" d="M122.346 129.506L123.224 132.247L125.216 133.31L123.148 134.474L122.346 137.114L121.469 134.373L119.477 133.31L121.544 132.146L122.346 129.506Z" fill="white"/>
<path d="M75.6786 179.066C76.1556 179.066 76.5423 178.679 76.5423 178.202C76.5423 177.724 76.1556 177.337 75.6786 177.337C75.2016 177.337 74.8149 177.724 74.8149 178.202C74.8149 178.679 75.2016 179.066 75.6786 179.066Z" fill="white"/>
<path d="M64.1947 214.196C64.6717 214.196 65.0584 213.809 65.0584 213.331C65.0584 212.854 64.6717 212.467 64.1947 212.467C63.7177 212.467 63.3311 212.854 63.3311 213.331C63.3311 213.809 63.7177 214.196 64.1947 214.196Z" fill="white"/>
<path d="M91.0189 181.536C91.4959 181.536 91.8826 181.149 91.8826 180.671C91.8826 180.194 91.4959 179.807 91.0189 179.807C90.542 179.807 90.1553 180.194 90.1553 180.671C90.1553 181.149 90.542 181.536 91.0189 181.536Z" fill="white"/>
<path d="M150.725 224.359C151.202 224.359 151.589 223.972 151.589 223.494C151.589 223.017 151.202 222.63 150.725 222.63C150.248 222.63 149.861 223.017 149.861 223.494C149.861 223.972 150.248 224.359 150.725 224.359Z" fill="white"/>
<path d="M167.395 203.234C167.872 203.234 168.259 202.847 168.259 202.37C168.259 201.892 167.872 201.505 167.395 201.505C166.918 201.505 166.531 201.892 166.531 202.37C166.531 202.847 166.918 203.234 167.395 203.234Z" fill="white"/>
<path d="M145.676 143.015C146.367 143.015 146.928 142.454 146.928 141.763C146.928 141.071 146.367 140.51 145.676 140.51C144.985 140.51 144.425 141.071 144.425 141.763C144.425 142.454 144.985 143.015 145.676 143.015Z" fill="white"/>
<path d="M70.9799 136.754C71.6711 136.754 72.2314 136.193 72.2314 135.501C72.2314 134.809 71.6711 134.248 70.9799 134.248C70.2888 134.248 69.7285 134.809 69.7285 135.501C69.7285 136.193 70.2888 136.754 70.9799 136.754Z" fill="white"/>
<path fill-rule="evenodd" clip-rule="evenodd" d="M82.8344 154.421L83.5126 156.54L85.0522 157.362L83.4541 158.261L82.8344 160.302L82.1563 158.183L80.6167 157.362L82.214 156.461L82.8344 154.421Z" fill="white"/>
<path d="M106.904 172.244C108.115 172.244 109.097 171.261 109.097 170.049C109.097 168.836 108.115 167.854 106.904 167.854C105.693 167.854 104.711 168.836 104.711 170.049C104.711 171.261 105.693 172.244 106.904 172.244Z" fill="white"/>
<path fill-rule="evenodd" clip-rule="evenodd" d="M108.625 188.646L109.593 191.666L111.788 192.838L109.51 194.122L108.625 197.032L107.658 194.011L105.462 192.838L107.741 191.556L108.625 188.646Z" fill="white"/>
<path fill-rule="evenodd" clip-rule="evenodd" d="M140.004 218.201L140.698 220.368L142.272 221.209L140.639 222.129L140.004 224.216L139.31 222.049L137.736 221.209L139.37 220.288L140.004 218.201Z" fill="white"/>
<path fill-rule="evenodd" clip-rule="evenodd" d="M113.266 210.414L113.96 212.581L115.535 213.422L113.9 214.342L113.266 216.43L112.572 214.263L110.998 213.422L112.632 212.502L113.266 210.414Z" fill="white"/>
<path fill-rule="evenodd" clip-rule="evenodd" d="M155.851 231.294L156.545 233.461L158.119 234.302L156.486 235.222L155.851 237.31L155.157 235.143L153.582 234.302L155.217 233.382L155.851 231.294Z" fill="white"/>
<path fill-rule="evenodd" clip-rule="evenodd" d="M198.329 217.028L199.023 219.195L200.597 220.035L198.963 220.956L198.329 223.043L197.635 220.877L196.061 220.035L197.694 219.115L198.329 217.028Z" fill="white"/>
<path fill-rule="evenodd" clip-rule="evenodd" d="M201.81 183.118L202.708 185.922L204.746 187.011L202.632 188.201L201.81 190.903L200.913 188.098L198.875 187.011L200.99 185.819L201.81 183.118Z" fill="white"/>
<path fill-rule="evenodd" clip-rule="evenodd" d="M216.384 157.602L217.675 161.635L220.607 163.2L217.565 164.914L216.384 168.799L215.092 164.765L212.161 163.2L215.203 161.487L216.384 157.602Z" fill="white"/>
<path fill-rule="evenodd" clip-rule="evenodd" d="M168.385 133.52L169.264 136.26L171.255 137.324L169.188 138.488L168.385 141.129L167.508 138.388L165.516 137.324L167.583 136.16L168.385 133.52Z" fill="white"/>
<path fill-rule="evenodd" clip-rule="evenodd" d="M99.1508 134.249L99.829 136.367L101.369 137.189L99.7705 138.089L99.1508 140.129L98.4727 138.011L96.9331 137.189L98.5312 136.29L99.1508 134.249Z" fill="white"/>
<path d="M135.573 209.872C136.05 209.872 136.436 209.485 136.436 209.007C136.436 208.53 136.05 208.143 135.573 208.143C135.096 208.143 134.709 208.53 134.709 209.007C134.709 209.485 135.096 209.872 135.573 209.872Z" fill="white"/>
<path d="M122.647 230.068C123.124 230.068 123.511 229.681 123.511 229.203C123.511 228.726 123.124 228.339 122.647 228.339C122.17 228.339 121.784 228.726 121.784 229.203C121.784 229.681 122.17 230.068 122.647 230.068Z" fill="white"/>
<path d="M185.423 183.114C185.9 183.114 186.286 182.727 186.286 182.249C186.286 181.772 185.9 181.385 185.423 181.385C184.946 181.385 184.559 181.772 184.559 182.249C184.559 182.727 184.946 183.114 185.423 183.114Z" fill="white"/>
<path d="M209.178 240.231C209.655 240.231 210.042 239.844 210.042 239.367C210.042 238.889 209.655 238.502 209.178 238.502C208.701 238.502 208.314 238.889 208.314 239.367C208.314 239.844 208.701 240.231 209.178 240.231Z" fill="white"/>
<path d="M213.477 202.314C213.954 202.314 214.341 201.927 214.341 201.45C214.341 200.972 213.954 200.585 213.477 200.585C213 200.585 212.614 200.972 212.614 201.45C212.614 201.927 213 202.314 213.477 202.314Z" fill="white"/>
<path d="M208.932 141.134C209.623 141.134 210.184 140.573 210.184 139.881C210.184 139.189 209.623 138.628 208.932 138.628C208.241 138.628 207.681 139.189 207.681 139.881C207.681 140.573 208.241 141.134 208.932 141.134Z" fill="white"/>
<path d="M192.197 158.243C192.888 158.243 193.448 157.682 193.448 156.99C193.448 156.298 192.888 155.737 192.197 155.737C191.506 155.737 190.945 156.298 190.945 156.99C190.945 157.682 191.506 158.243 192.197 158.243Z" fill="white"/>
<path d="M145.421 138.631C146.112 138.631 146.673 138.07 146.673 137.378C146.673 136.686 146.112 136.125 145.421 136.125C144.73 136.125 144.17 136.686 144.17 137.378C144.17 138.07 144.73 138.631 145.421 138.631Z" fill="white"/>
<path fill-rule="evenodd" clip-rule="evenodd" d="M111.272 148.011L111.951 150.129L113.49 150.951L111.892 151.851L111.272 153.891L110.593 151.773L109.055 150.951L110.652 150.051L111.272 148.011Z" fill="white"/>
<path fill-rule="evenodd" clip-rule="evenodd" d="M125.999 179.315C117.521 191.634 73.5347 251.558 35.1338 228.343L131.555 295.092H138.018L234.44 228.343C196.039 251.558 152.053 191.633 143.575 179.315C143.157 179.602 142.664 179.753 142.122 179.755C137.232 179.772 132.341 179.773 127.451 179.755C126.909 179.752 126.416 179.602 125.998 179.315H125.999Z" fill="#210A32"/>
<path fill-rule="evenodd" clip-rule="evenodd" d="M128.78 179.759C123.833 193.626 97.7329 258.784 38.8311 275.654L113.212 309.257L134.787 308.463L156.363 309.257L230.744 275.654C171.841 258.784 145.887 193.623 140.972 179.759C136.909 179.771 132.844 179.772 128.781 179.76L128.78 179.759Z" fill="#501778"/>
<path fill-rule="evenodd" clip-rule="evenodd" d="M132.195 179.766C131.881 194.129 128.599 263.909 94.5093 288.516L134.787 303.396L175.064 288.516C140.975 263.908 137.692 194.128 137.378 179.766C135.65 179.768 133.922 179.768 132.194 179.766L132.195 179.766Z" fill="white"/>
</g>
<path d="M59.0092 74.1019C71.0573 74.1019 79.8826 65.9549 79.8826 54.7399C79.8826 43.5249 71.0573 35.3779 59.0092 35.3779C46.9611 35.3779 38.1357 43.5249 38.1357 54.7399C38.1357 65.9549 46.9603 74.1019 59.0092 74.1019ZM59.0092 63.9981C54.4118 63.9981 50.713 60.5069 50.713 54.7407C50.713 48.9745 54.4118 45.4832 59.0092 45.4832C63.6066 45.4832 67.3053 48.9745 67.3053 54.7407C67.3053 60.5069 63.6058 63.9981 59.0092 63.9981ZM106.568 73.2555H119.884L112.116 61.8289C116.555 59.5547 119.092 55.5337 119.092 50.1907C119.092 41.6206 112.539 36.2243 102.235 36.2243H84.4268V73.2555H96.8977V63.9448H100.279L106.568 73.2555ZM106.515 50.1907C106.515 52.8889 104.877 54.5283 101.443 54.5283H96.8977V45.8524H101.443C104.878 45.8524 106.515 47.4926 106.515 50.1907ZM146.2 45.6408V36.2243H122.632V45.6408H128.181V63.839H122.632V73.2555H146.2V63.839H140.652V45.6408H146.2ZM170.191 74.1019C182.239 74.1019 191.064 65.9549 191.064 54.7399C191.064 43.5249 182.239 35.3779 170.191 35.3779C158.143 35.3779 149.317 43.5249 149.317 54.7399C149.317 65.9549 158.142 74.1019 170.191 74.1019ZM170.191 63.9981C165.593 63.9981 161.895 60.5069 161.895 54.7407C161.895 48.9745 165.593 45.4832 170.191 45.4832C174.788 45.4832 178.487 48.9745 178.487 54.7407C178.487 60.5069 174.787 63.9981 170.191 63.9981ZM218.066 35.3787C213.575 35.3787 210.087 37.1247 207.709 40.1927V36.225H195.608V73.2563H208.079V52.6248C208.079 47.7049 210.668 45.4832 213.892 45.4832C217.221 45.4832 219.388 47.5466 219.388 52.2016V73.2563H231.858V51.8309C231.858 41.2507 226.786 35.3787 218.066 35.3787Z" fill="white"/>
<path d="M55.3041 92.569C57.1873 91.6268 58.1582 90.0361 58.1582 88.1211C58.1582 84.999 55.5102 82.7309 49.8316 82.7309H38.8281V103.349H50.4201C56.0979 103.349 59.1283 101.257 59.1283 97.6639C59.1283 95.2192 57.7165 93.4519 55.3034 92.5683L55.3041 92.569ZM48.8904 87.5914C50.4497 87.5914 51.156 88.1211 51.156 89.1227C51.156 90.1243 50.4497 90.6541 48.8904 90.6541H45.6539V87.5906H48.8904V87.5914ZM49.8316 98.489H45.6539V95.2489H49.8316C51.3613 95.2489 52.1269 95.8083 52.1269 96.8686C52.1269 97.9288 51.3621 98.4882 49.8316 98.4882V98.489ZM72.3686 103.821C79.0765 103.821 83.9902 99.2844 83.9902 93.0409C83.9902 86.7968 79.0765 82.2605 72.3686 82.2605C65.6606 82.2605 60.747 86.7968 60.747 93.0409C60.747 99.2851 65.6606 103.821 72.3686 103.821ZM72.3686 98.1952C69.8087 98.1952 67.7491 96.2513 67.7491 93.0409C67.7491 89.8306 69.8087 87.8867 72.3686 87.8867C74.9284 87.8867 76.9873 89.8306 76.9873 93.0409C76.9873 96.2513 74.9277 98.1952 72.3686 98.1952ZM97.3179 103.821C104.026 103.821 108.939 99.2844 108.939 93.0409C108.939 86.7968 104.026 82.2605 97.3179 82.2605C90.6099 82.2605 85.6963 86.7968 85.6963 93.0409C85.6963 99.2851 90.6099 103.821 97.3179 103.821ZM97.3179 98.1952C94.758 98.1952 92.6984 96.2513 92.6984 93.0409C92.6984 89.8306 94.758 87.8867 97.3179 87.8867C99.8777 87.8867 101.937 89.8306 101.937 93.0409C101.937 96.2513 99.877 98.1952 97.3179 98.1952ZM130.152 84.9998C127.18 83.2035 123.414 82.2605 119.561 82.2605C115.706 82.2605 111.94 83.2028 108.968 84.9998L111.264 89.9478C112.793 89.0938 114.353 88.475 116.088 88.1219V103.349H123.032V88.1219C124.768 88.4758 126.327 89.0938 127.857 89.9478L130.152 84.9998ZM141.656 103.821C145.687 103.821 148.864 102.348 150.894 99.6969L146.51 95.7794C145.304 97.3108 143.862 98.1944 142.009 98.1944C139.126 98.1944 137.184 96.1912 137.184 93.0402C137.184 89.8884 139.126 87.8859 142.009 87.8859C143.862 87.8859 145.304 88.7696 146.51 90.3009L150.894 86.3835C148.864 83.7325 145.686 82.2598 141.656 82.2598C135.036 82.2598 130.182 86.7077 130.182 93.0402C130.182 99.3726 135.036 103.82 141.656 103.82V103.821ZM162.868 82.2605C156.866 82.2605 152.718 85.9131 152.718 92.3635V103.35H159.544V99.1968H166.075V103.35H173.019V92.3635C173.019 85.9131 168.87 82.2605 162.868 82.2605ZM159.544 93.9535V91.7737C159.544 89.1227 160.927 87.8859 162.81 87.8859C164.693 87.8859 166.075 89.1235 166.075 91.7737V93.9535H159.544ZM200.881 82.2605C198.203 82.2605 195.909 83.1739 194.437 85.0295C193.172 83.2035 191.201 82.2605 188.582 82.2605C186.052 82.2605 184.14 83.1442 182.905 84.7935V82.7317H176.197V103.349H183.14V91.2736C183.14 89.0055 184.288 87.8859 185.994 87.8859C187.672 87.8859 188.731 88.9461 188.731 91.0377V103.349H195.674V91.2736C195.674 89.0055 196.939 87.8859 198.763 87.8859C200.558 87.8859 201.735 88.9461 201.735 91.0377V103.349H208.679V90.8314C208.679 85.235 205.737 82.2605 200.882 82.2605H200.881ZM221.77 82.7317H211.855V103.349H218.799V98.2835H221.771C227.508 98.2835 231.157 95.2794 231.157 90.508C231.157 85.7365 227.508 82.7324 221.771 82.7324L221.77 82.7317ZM221.328 92.923H218.798V88.0929H221.328C223.241 88.0929 224.153 89.0063 224.153 90.508C224.153 92.0104 223.241 92.923 221.328 92.923Z" fill="white"/>
<path fill-rule="evenodd" clip-rule="evenodd" d="M142.326 176.855C137.433 176.872 132.564 176.874 127.674 176.855C128.176 175.156 128.632 173.617 129.146 171.881L128.231 171.537L128.336 169.958L127.074 169.168L122.919 177.382L121.394 176.803L121.183 163.06L123.497 160.954L124.865 164.113L128.283 159.532C128.283 159.532 128.441 141.895 134.91 136.208H135.09C141.559 141.895 141.717 159.532 141.717 159.532L145.135 164.113L146.503 160.954L148.817 163.06L148.606 176.803L147.081 177.382L142.926 169.168L141.664 169.958L141.769 171.537L140.855 171.881C141.368 173.617 141.824 175.156 142.326 176.855Z" fill="#210A32"/>
</svg>
